<?xml version="1.0" encoding="UTF-8" standalone="no"?>
<svg width="50px" height="35px" viewBox="0 0 50 35" version="1.1" xmlns="http://www.w3.org/2000/svg" xmlns:xlink="http://www.w3.org/1999/xlink" xmlns:sketch="http://www.bohemiancoding.com/sketch/ns">
    <!-- Generator: Sketch 3.1.1 (8761) - http://www.bohemiancoding.com/sketch -->
    <title>channels-video-views</title>
    <desc>Created with Sketch.</desc>
    <defs></defs>
    <g id="Page-1" stroke="none" stroke-width="1" fill="none" fill-rule="evenodd" sketch:type="MSPage">
        <g id="Desktop-HD" sketch:type="MSArtboardGroup" transform="translate(-1334.000000, -39.000000)" fill="#636462">
            <path d="M1382.553,44.339 C1382.526,44.15 1382.487,43.966 1382.436,43.786 C1382.414,43.702 1382.388,43.616 1382.36,43.533 C1381.73,41.664 1379.965,40.315 1377.883,40.314 L1378.208,40.314 C1378.208,40.314 1369.837,39.052 1358.702,39 C1347.567,39.052 1339.196,40.314 1339.196,40.314 L1339.521,40.314 C1337.438,40.315 1335.674,41.664 1335.043,43.533 C1335.016,43.616 1334.991,43.702 1334.966,43.786 C1334.918,43.966 1334.879,44.15 1334.851,44.339 C1334.547,46.51 1334.046,50.844 1334,56.037 C1334.046,61.232 1334.547,65.562 1334.851,67.736 C1334.879,67.925 1334.918,68.108 1334.966,68.288 C1334.991,68.375 1335.016,68.457 1335.043,68.542 C1335.674,70.412 1337.438,71.761 1339.521,71.761 L1339.196,71.761 C1339.196,71.761 1347.567,73.024 1358.702,73.076 C1369.837,73.024 1378.208,71.761 1378.208,71.761 L1377.883,71.761 C1379.965,71.761 1381.73,70.412 1382.36,68.542 C1382.388,68.457 1382.414,68.375 1382.436,68.288 C1382.487,68.108 1382.526,67.925 1382.553,67.736 C1382.856,65.562 1383.358,61.232 1383.403,56.037 C1383.358,50.844 1382.856,46.51 1382.553,44.339 L1382.553,44.339 Z M1366.018,57.095 L1356.043,64.34 C1355.835,64.492 1355.587,64.57 1355.338,64.57 C1355.153,64.57 1354.965,64.525 1354.794,64.44 C1354.392,64.234 1354.138,63.82 1354.138,63.368 L1354.138,48.881 C1354.138,48.428 1354.392,48.015 1354.794,47.808 C1355.194,47.604 1355.678,47.643 1356.043,47.908 L1366.018,55.151 C1366.33,55.378 1366.512,55.739 1366.512,56.123 C1366.512,56.509 1366.331,56.868 1366.018,57.095 L1366.018,57.095 Z" id="channels-video-views" sketch:type="MSShapeGroup"></path>
        </g>
    </g>
</svg>