<?xml version="1.0" encoding="UTF-8" standalone="no"?>
<svg width="58px" height="42px" viewBox="0 0 58 42" version="1.1" xmlns="http://www.w3.org/2000/svg" xmlns:xlink="http://www.w3.org/1999/xlink" xmlns:sketch="http://www.bohemiancoding.com/sketch/ns">
    <!-- Generator: Sketch 3.1.1 (8761) - http://www.bohemiancoding.com/sketch -->
    <title>channels-talking-about</title>
    <desc>Created with Sketch.</desc>
    <defs></defs>
    <g id="Page-1" stroke="none" stroke-width="1" fill="none" fill-rule="evenodd" sketch:type="MSPage">
        <g id="Desktop-HD" sketch:type="MSArtboardGroup" transform="translate(-1162.000000, -31.000000)" fill="#636462">
            <g id="channels-talking-about" sketch:type="MSLayerGroup" transform="translate(1163.000000, 31.000000)">
                <path d="M8.982,19.389 C8.982,20.189 9.593,20.836 10.346,20.836 C10.354,20.836 10.362,20.834 10.37,20.834 C10.651,24.646 13.655,28.461 17.323,28.461 C20.989,28.461 23.993,24.646 24.274,20.834 C24.283,20.834 24.291,20.836 24.3,20.836 C25.053,20.836 25.663,20.189 25.663,19.389 C25.663,18.802 25.331,18.294 24.854,18.069 C25.131,17.213 25.282,16.298 25.282,15.342 C25.282,10.68 21.72,6.9 17.323,6.9 C12.926,6.9 9.362,10.68 9.362,15.342 C9.362,16.298 9.515,17.213 9.79,18.069 C9.313,18.294 8.982,18.802 8.982,19.389" id="Fill-1" sketch:type="MSShapeGroup"></path>
                <path d="M34.749,37.283 C31.497,34.126 27.529,31.9 23.262,30.835 C23.154,30.777 23.032,30.745 22.908,30.745 L22.521,30.745 C22.399,30.745 22.278,30.775 22.171,30.833 C20.883,31.525 19.115,31.92 17.323,31.92 C15.529,31.92 13.763,31.523 12.474,30.832 C12.364,30.774 12.245,30.744 12.122,30.744 L11.842,30.744 C11.784,30.744 11.726,30.752 11.671,30.766 C7.292,31.801 3.22,34.055 -0.103,37.283 C-0.248,37.422 -0.329,37.615 -0.329,37.815 L-0.329,40.465 C-0.329,40.875 0.003,41.207 0.413,41.207 L34.232,41.207 C34.642,41.207 34.974,40.875 34.974,40.465 L34.974,37.815 C34.974,37.615 34.893,37.422 34.749,37.283" id="Fill-2" sketch:type="MSShapeGroup"></path>
                <path d="M35.789,17.924 C35.782,16.17 35.485,14.418 34.893,12.707 C34.655,12.037 33.668,11.625 32.68,11.783 C31.691,11.935 31.077,12.6 31.311,13.271 L31.304,13.27 C31.838,14.792 32.102,16.359 32.096,17.924 C32.103,19.503 31.822,21.084 31.288,22.63 C31.052,23.299 31.678,23.962 32.672,24.12 C32.812,24.142 32.951,24.152 33.09,24.152 C33.925,24.151 34.683,23.762 34.885,23.192 C35.479,21.462 35.781,19.694 35.789,17.924" id="Fill-3" sketch:type="MSShapeGroup"></path>
                <path d="M50.616,34.666 C54.32,29.373 56.185,23.657 56.185,17.937 C56.186,12.223 54.32,6.51 50.617,1.212 C50.181,0.587 49.078,0.326 48.164,0.617 C47.243,0.906 46.851,1.646 47.284,2.266 L47.275,2.265 C50.754,7.231 52.484,12.577 52.484,17.936 C52.485,23.298 50.754,28.648 47.275,33.612 C46.839,34.232 47.234,34.971 48.164,35.265 C48.418,35.342 48.681,35.379 48.938,35.379 C49.634,35.38 50.298,35.115 50.616,34.666" id="Fill-4" sketch:type="MSShapeGroup"></path>
                <path d="M45.887,17.916 C45.886,14.542 45.073,11.166 43.41,7.964 C43.074,7.316 42.022,6.976 41.067,7.202 C40.11,7.421 39.599,8.129 39.933,8.775 C41.449,11.709 42.201,14.809 42.201,17.916 C42.2,21.039 41.43,24.163 39.909,27.128 C39.576,27.773 40.087,28.482 41.05,28.702 C41.25,28.75 41.452,28.771 41.649,28.771 C42.417,28.771 43.136,28.449 43.403,27.934 C45.045,24.707 45.886,21.313 45.887,17.916" id="Fill-5" sketch:type="MSShapeGroup"></path>
            </g>
        </g>
    </g>
</svg>