<?xml version="1.0" encoding="UTF-8" standalone="no"?>
<svg width="27px" height="12px" viewBox="0 0 27 12" version="1.1" xmlns="http://www.w3.org/2000/svg" xmlns:xlink="http://www.w3.org/1999/xlink" xmlns:sketch="http://www.bohemiancoding.com/sketch/ns">
    <!-- Generator: Sketch 3.1.1 (8761) - http://www.bohemiancoding.com/sketch -->
    <title>channels-followers</title>
    <desc>Created with Sketch.</desc>
    <defs>
        <path id="path-1" d="M0.06,0.31 L15.943,0.31 L15.943,11.94 L0.06,11.94"></path>
    </defs>
    <g id="Page-1" stroke="none" stroke-width="1" fill="none" fill-rule="evenodd" sketch:type="MSPage">
        <g id="Desktop-HD" sketch:type="MSArtboardGroup" transform="translate(-482.000000, -189.000000)">
            <g id="channels-followers" sketch:type="MSLayerGroup" transform="translate(482.000000, 189.000000)">
                <g id="Group-8">
                    <mask id="mask-2" sketch:name="Clip 2" fill="white">
                        <use xlink:href="#path-1"></use>
                    </mask>
                    <g id="Clip-2"></g>
                    <path d="M0,12 L0,10.496 C0,10.496 0.778,9.085 2.046,8.866 C2.046,8.866 3.865,7.926 4.578,7.057 C4.578,7.057 5.65,6.477 5.715,8.034 L5.715,12 L0,12" id="Fill-1" fill="#60605C" sketch:type="MSShapeGroup" mask="url(#mask-2)"></path>
                    <path d="M11.072,12 L11.072,10.496 C11.072,10.496 10.297,9.085 9.029,8.866 C9.029,8.866 7.209,7.926 6.495,7.057 C6.495,7.057 5.424,6.477 5.359,8.034 L5.359,12 L11.072,12" id="Fill-3" fill="#60605C" sketch:type="MSShapeGroup" mask="url(#mask-2)"></path>
                    <path d="M4.12,7.975 L4.329,5.563 L6.746,5.563 L6.955,7.94 L4.12,7.975" id="Fill-4" fill="#60605C" sketch:type="MSShapeGroup" mask="url(#mask-2)"></path>
                    <path d="M7.826,2.661 C7.826,2.661 7.748,0.239 5.543,0.312 C3.329,0.232 3.247,2.661 3.247,2.661 C3.247,2.661 3.184,2.863 3.36,3.923 C3.279,4.979 3.678,5.242 3.806,5.841 C3.88,6.568 4.718,6.819 5.281,6.906 L5.281,6.953 C5.281,6.953 5.385,6.952 5.542,6.937 C5.693,6.952 5.793,6.952 5.793,6.952 L5.793,6.906 C6.356,6.82 7.197,6.569 7.27,5.841 C7.396,5.243 7.795,4.979 7.716,3.924 C7.891,2.863 7.826,2.661 7.826,2.661" id="Fill-5" fill="#60605C" sketch:type="MSShapeGroup" mask="url(#mask-2)"></path>
                    <path d="M5.866,12 L5.866,10.631 C5.866,10.631 6.575,9.348 7.729,9.147 C7.729,9.147 9.382,8.293 10.031,7.5 C10.031,7.5 11.01,6.975 11.068,8.39 L11.068,12 L5.866,12" id="Fill-6" fill="#C8C7C2" sketch:type="MSShapeGroup" mask="url(#mask-2)"></path>
                    <path d="M15.943,12 L15.943,10.631 C15.943,10.631 15.235,9.348 14.085,9.147 C14.085,9.147 12.428,8.293 11.779,7.5 C11.779,7.5 10.803,6.975 10.74,8.39 L10.74,12 L15.943,12" id="Fill-7" fill="#C8C7C2" sketch:type="MSShapeGroup" mask="url(#mask-2)"></path>
                </g>
                <path d="M9.618,8.338 L9.808,6.144 L12.006,6.144 L12.196,8.305 L9.618,8.338" id="Fill-9" fill="#C8C7C2" sketch:type="MSShapeGroup"></path>
                <path d="M12.987,3.501 C12.987,3.501 12.915,1.298 10.91,1.365 C8.896,1.293 8.822,3.501 8.822,3.501 C8.822,3.501 8.764,3.686 8.922,4.65 C8.852,5.611 9.214,5.852 9.331,6.396 C9.396,7.058 10.159,7.286 10.672,7.363 L10.672,7.407 C10.672,7.407 10.767,7.406 10.909,7.393 C11.047,7.406 11.139,7.406 11.139,7.406 L11.139,7.363 C11.652,7.286 12.414,7.06 12.481,6.397 C12.597,5.852 12.96,5.611 12.888,4.651 C13.047,3.686 12.987,3.501 12.987,3.501" id="Fill-10" fill="#C8C7C2" sketch:type="MSShapeGroup"></path>
                <path d="M17.5,6.623 L23.694,6.624" id="Stroke-1" stroke="#60605C" stroke-width="3" stroke-linecap="round" stroke-linejoin="round" sketch:type="MSShapeGroup"></path>
                <path d="M21.895,2.747 L26.394,6.661 L21.895,10.576 L21.895,2.747" id="Fill-3" fill="#60605C" sketch:type="MSShapeGroup"></path>
            </g>
        </g>
    </g>
</svg>