<?xml version="1.0" encoding="utf-8"?>
<!-- Generator: Adobe Illustrator 16.0.0, SVG Export Plug-In . SVG Version: 6.00 Build 0)  -->
<!DOCTYPE svg PUBLIC "-//W3C//DTD SVG 1.1//EN" "http://www.w3.org/Graphics/SVG/1.1/DTD/svg11.dtd">
<svg version="1.1" id="Layer_1" xmlns="http://www.w3.org/2000/svg" xmlns:xlink="http://www.w3.org/1999/xlink" x="0px" y="0px"
	 width="1094.878px" height="1150.559px" viewBox="-156.878 0 1094.878 1150.559"
	 enable-background="new -156.878 0 1094.878 1150.559" xml:space="preserve">
<path fill="#838383" d="M680.762,304.25H125.735c-15.705,0-29.344,5.548-40.895,16.62c-11.54,11.097-17.323,24.487-17.323,40.195
	v256.844c0,15.683,5.783,29.331,17.323,40.846c11.551,11.566,25.19,17.349,40.895,17.349h114.459V812.25l136.252-136.146h304.315
	c15.734,0,29.332-5.782,40.897-17.35c11.565-11.515,17.298-25.163,17.298-40.846V361.064c0-15.708-5.731-29.098-17.298-40.195
	C710.094,309.798,696.496,304.25,680.762,304.25z M682.601,177.989c48.999,0,90.627,17.217,125.049,51.601
	c34.435,34.394,51.601,76.101,51.601,125.1v254.415c0,49-17.166,90.717-51.601,125.151c-34.422,34.333-76.05,51.601-125.049,51.601
	H404.003l-244.431,261.904V785.856h-35.621c-49,0-90.717-17.268-125.1-51.601c-34.384-34.435-51.601-76.151-51.601-125.151V354.69
	c0-48.999,17.217-90.707,51.601-125.1c34.383-34.384,76.101-51.601,125.1-51.601H682.601z"/>
</svg>
