<?xml version="1.0" encoding="UTF-8" standalone="no"?>
<svg width="64px" height="49px" viewBox="0 0 64 49" version="1.1" xmlns="http://www.w3.org/2000/svg" xmlns:xlink="http://www.w3.org/1999/xlink" xmlns:sketch="http://www.bohemiancoding.com/sketch/ns">
    <!-- Generator: Sketch 3.1.1 (8761) - http://www.bohemiancoding.com/sketch -->
    <title>Klout</title>
    <desc>Created with Sketch.</desc>
    <defs></defs>
    <g id="Page-1" stroke="none" stroke-width="1" fill="none" fill-rule="evenodd" sketch:type="MSPage">
        <g id="Desktop-HD" sketch:type="MSArtboardGroup" transform="translate(-19.000000, -680.000000)" fill="#828282">
            <path d="M19,680 L19,718.449647 L62.2759899,718.449647 L72.4733772,723.507917 C78.0813975,726.291117 82.7130532,728.614533 82.7670076,728.66827 C82.8211241,728.722007 82.8813975,728.765127 82.8987342,728.765127 C82.9160709,728.765127 82.9290329,717.793373 82.9290329,704.382563 L82.9290329,680 L19,680 L19,680 Z M47.0556557,685.54827 L50.756962,685.568687 L54.4632911,685.589103 L54.4785215,690.759583 C54.4934278,694.7833 54.5178937,695.945253 54.5898329,695.991313 C54.7022785,696.063343 59.3972861,696.063343 59.5772962,695.991313 C59.6472911,695.96322 61.2171544,693.71265 63.0658633,690.98923 C64.9144101,688.26581 66.5054987,685.927693 66.6051443,685.79327 L66.7874228,685.54827 L71.2683949,685.568687 C74.6874532,685.583387 75.7493671,685.612297 75.7493671,685.680897 C75.7493671,685.730387 73.604638,688.782923 70.9848506,692.464293 C68.3650633,696.145827 66.2109367,699.207837 66.200081,699.273333 C66.1892253,699.33883 68.5287089,702.546697 71.3949367,706.403813 C74.2613266,710.26093 76.593681,713.456383 76.5797468,713.498687 C76.5628962,713.54981 75.019119,713.577577 71.9670481,713.59048 L67.3797873,713.610897 L65.1974684,710.522917 C63.9989671,708.824413 62.2652962,706.37033 61.3443443,705.066603 L59.6733772,702.693043 L54.5342582,702.693043 L54.4632911,713.575127 L50.8076759,713.59048 C48.7988861,713.60126 47.1340759,713.587703 47.1063696,713.559937 C47.0786633,713.532007 47.0556557,707.217703 47.0556557,699.52846 L47.0556557,685.54827 L47.0556557,685.54827 Z M30.1645165,685.553333 C33.4768,685.552517 34.4781165,685.572607 34.5746835,685.645127 C34.6433823,685.69674 36.2715747,688.050373 38.1897924,690.87702 L41.6734987,696.016793 L43.2025316,696.03721 C44.3734886,696.052727 44.7540861,696.082453 44.817762,696.15971 C44.8767392,696.231413 44.8922937,697.17058 44.8785215,699.400897 L44.8582684,702.545063 L43.2785215,702.580833 C42.2141772,702.605987 41.6736608,702.646003 41.6380152,702.703333 C41.6088506,702.75021 39.8795544,705.209683 37.7949367,708.16471 L34.0075949,713.534293 L29.4404253,713.534293 C26.9303291,713.534293 24.8784405,713.510937 24.8784405,713.47827 C24.8784405,713.44544 27.2232709,710.262727 30.0885266,706.408877 C32.9539443,702.555027 35.2987747,699.355163 35.2987747,699.298813 C35.2987747,699.224333 26.2925975,686.489233 25.7443038,685.788043 C25.688243,685.716503 25.6978025,685.66881 25.7747646,685.619647 C25.8355241,685.580937 27.7266835,685.553987 30.1645165,685.553333 L30.1645165,685.553333 Z" id="Klout" sketch:type="MSShapeGroup"></path>
        </g>
    </g>
</svg>