<?xml version="1.0" encoding="UTF-8" standalone="no"?>
<svg width="16px" height="10px" viewBox="0 0 16 10" version="1.1" xmlns="http://www.w3.org/2000/svg" xmlns:xlink="http://www.w3.org/1999/xlink" xmlns:sketch="http://www.bohemiancoding.com/sketch/ns">
    <!-- Generator: Sketch 3.1.1 (8761) - http://www.bohemiancoding.com/sketch -->
    <title>eye-1</title>
    <desc>Created with Sketch.</desc>
    <defs>
        <path id="path-1" d="M0.06,-0.036 L15.966,-0.036 L15.966,9 L0.06,9"></path>
    </defs>
    <g id="Page-1" stroke="none" stroke-width="1" fill="none" fill-rule="evenodd" sketch:type="MSPage">
        <g id="Desktop-HD" sketch:type="MSArtboardGroup" transform="translate(-101.000000, -392.000000)">
            <g id="eye-1" sketch:type="MSLayerGroup" transform="translate(101.000000, 393.000000)">
                <mask id="mask-2" sketch:name="Clip 2" fill="white">
                    <use xlink:href="#path-1"></use>
                </mask>
                <g id="Clip-2"></g>
                <path d="M0,4.482 C0,4.482 2.511,-0.036 7.697,-0.036 C12.883,-0.037 15.966,4.474 15.966,4.474 C15.966,4.474 13.22,9 8.199,9 C3.179,9 0,4.482 0,4.482" id="Fill-1" fill="#838383" sketch:type="MSShapeGroup" mask="url(#mask-2)"></path>
                <path d="M9.517,2.95 C10.363,3.796 10.363,5.168 9.517,6.014 C8.67,6.862 7.298,6.862 6.452,6.014 C5.605,5.168 5.605,3.796 6.452,2.95 C7.298,2.105 8.67,2.105 9.517,2.95" id="Stroke-3" stroke="#FFFFFF" stroke-width="1.5" sketch:type="MSShapeGroup" mask="url(#mask-2)"></path>
            </g>
        </g>
    </g>
</svg>